<svg width="622" height="499" viewBox="0 0 622 499" fill="none" xmlns="http://www.w3.org/2000/svg">
<path d="M319.615 461.048L552.476 326.764C554.154 325.835 555.567 324.443 556.567 322.734C557.567 321.024 558.117 319.061 558.16 317.048C558.203 315.035 557.737 313.046 556.811 311.291C555.885 309.535 554.533 308.076 552.896 307.067L327.156 163.431C325.429 162.339 323.463 161.75 321.455 161.721C319.446 161.692 317.466 162.224 315.712 163.265L69.3841 310.096C67.7081 311.059 66.308 312.487 65.3322 314.228C64.3564 315.969 63.8412 317.958 63.8412 319.986C63.8412 322.013 64.3564 324.003 65.3322 325.744C66.308 327.485 67.7081 328.912 69.3841 329.875L289.028 460.817C293.697 463.588 298.947 465.061 304.293 465.102C309.639 465.142 314.909 463.748 319.615 461.048V461.048Z" fill="#00275E"/>
<path d="M280.195 261.599C280.195 261.599 233.094 288.364 221.945 352.22C221.945 352.22 267.818 362.565 329.24 308.491" fill="#EB773A"/>
<path d="M279.604 269.743C279.604 269.743 259.514 288.926 253.854 302.466C248.193 316.005 240.807 335.818 240.807 335.818C240.807 335.818 276.183 339.029 309.445 317.362C342.706 295.696 311 255.177 279.604 269.743Z" fill="#FFAE46"/>
<path d="M299.571 263.006C298.358 265.175 277.661 277.588 273.789 295.497L280.538 290.052C280.538 290.052 269.062 307.166 264.195 317.015C264.195 317.015 292.185 305.147 291.314 305.859L283.399 312.248C283.399 312.248 304.687 311.768 319.164 297.997C333.641 284.226 313.737 260.209 313.737 260.209L299.571 263.006Z" fill="#FAD374"/>
<path d="M362.035 262.841C362.035 262.841 358.381 288.082 350.559 294.289C342.738 300.496 317.344 321.07 317.344 321.07L313.13 315.144C313.13 315.144 330.64 281.925 333.734 267.26C336.829 252.595 362.035 262.841 362.035 262.841Z" fill="#70E5FF"/>
<path opacity="0.61" d="M362.035 262.841C362.035 262.841 358.381 288.082 350.559 294.289C342.738 300.496 317.344 321.07 317.344 321.07L313.13 315.144C313.13 315.144 330.64 281.925 333.734 267.26C336.829 252.595 362.035 262.841 362.035 262.841Z" fill="#363636"/>
<path d="M336.751 227.321C336.751 227.321 312.928 224.242 305.122 230.631C297.316 237.02 271.907 257.412 271.907 257.412L276.121 263.337C276.121 263.337 310.907 254.383 325.01 255.194C339.114 256.005 336.751 227.321 336.751 227.321Z" fill="#70E5FF"/>
<path opacity="0.61" d="M336.751 227.321C336.751 227.321 312.928 224.242 305.122 230.631C297.316 237.02 271.907 257.412 271.907 257.412L276.121 263.337C276.121 263.337 310.907 254.383 325.01 255.194C339.114 256.005 336.751 227.321 336.751 227.321Z" fill="#363636"/>
<path d="M451.121 184.948C457.418 174.477 462.504 163.234 466.267 151.464C466.267 151.464 452.427 151.629 431.746 158.184C433.394 169.389 441.807 178.327 451.121 184.948Z" fill="#70E5FF"/>
<path d="M395.642 230.44C402.213 225.14 402.953 214.4 397.295 206.451C391.637 198.501 381.722 196.354 375.151 201.653C368.58 206.953 367.84 217.693 373.498 225.642C379.156 233.591 389.07 235.739 395.642 230.44Z" fill="#70E5FF"/>
<path d="M514.596 111.839C514.596 111.839 384.287 146.333 318.075 248.457C318.075 248.457 302.525 266.118 310.036 275.933C317.547 285.748 342.582 277.936 342.582 277.936C342.582 277.936 424.857 253.075 514.596 111.839Z" fill="#70E5FF"/>
<path d="M318.075 248.457C318.075 248.457 301.654 246.339 296.305 250.692C290.956 255.045 273.416 269.147 273.416 269.147L276.323 273.235C276.323 273.235 300.302 267.061 310.005 267.624C319.708 268.187 318.075 248.457 318.075 248.457Z" fill="#70E5FF"/>
<path d="M337.855 276.248C337.855 276.248 335.336 293.644 329.94 297.98C324.544 302.317 307.05 316.435 307.05 316.435L304.158 312.397C304.158 312.397 316.225 289.506 318.355 279.393C320.485 269.279 337.855 276.248 337.855 276.248Z" fill="#70E5FF"/>
<path opacity="0.29" d="M318.075 248.457C318.075 248.457 301.654 246.339 296.305 250.692C290.956 255.045 273.416 269.147 273.416 269.147L276.323 273.235C276.323 273.235 300.302 267.061 310.005 267.624C319.708 268.187 318.075 248.457 318.075 248.457Z" fill="#363636"/>
<path opacity="0.29" d="M337.855 276.248C337.855 276.248 335.336 293.644 329.94 297.98C324.544 302.317 307.05 316.435 307.05 316.435L304.158 312.397C304.158 312.397 316.225 289.506 318.355 279.393C320.485 269.279 337.855 276.248 337.855 276.248Z" fill="#363636"/>
<path d="M451.292 136.716C451.292 136.716 450.841 160.17 474.166 168.86L460.638 185.213C460.638 185.213 431.341 167.684 435.882 144.661L451.292 136.716Z" fill="#70E5FF"/>
<path d="M367.618 191.089C367.618 191.089 367.882 230.813 402.683 242.118L376.839 260.921C376.839 260.921 339.519 247.133 346.438 211.795L367.618 191.089Z" fill="#70E5FF"/>
<path d="M430.521 185.361C432.834 183.495 433.289 179.986 431.536 177.524C429.783 175.061 426.486 174.577 424.173 176.443C421.859 178.309 421.404 181.818 423.157 184.281C424.91 186.744 428.207 187.227 430.521 185.361Z" fill="#70E5FF"/>
<path d="M411.434 214.665C417.494 209.827 418.722 200.677 414.177 194.227C409.633 187.777 401.036 186.47 394.976 191.307C388.917 196.145 387.688 205.295 392.233 211.745C396.778 218.195 405.375 219.503 411.434 214.665Z" fill="#70E5FF"/>
<path opacity="0.61" d="M451.292 136.716C451.292 136.716 450.841 160.17 474.166 168.86L460.638 185.213C460.638 185.213 431.341 167.684 435.882 144.661L451.292 136.716Z" fill="#606060"/>
<path opacity="0.61" d="M367.618 191.089C367.618 191.089 367.882 230.813 402.683 242.118L376.839 260.921C376.839 260.921 339.519 247.133 346.438 211.795L367.618 191.089Z" fill="#606060"/>
<path opacity="0.61" d="M430.521 185.361C432.834 183.495 433.289 179.986 431.536 177.524C429.783 175.061 426.486 174.577 424.173 176.443C421.859 178.309 421.404 181.818 423.157 184.281C424.91 186.744 428.207 187.227 430.521 185.361Z" fill="#606060"/>
<path opacity="0.61" d="M411.434 214.665C417.494 209.827 418.722 200.677 414.177 194.227C409.633 187.777 401.036 186.47 394.976 191.307C388.917 196.145 387.688 205.295 392.233 211.745C396.778 218.195 405.375 219.503 411.434 214.665Z" fill="#606060"/>
<path d="M476.296 287.453C475.884 287.453 475.489 287.628 475.197 287.938C474.905 288.248 474.741 288.669 474.741 289.108C474.741 289.547 474.905 289.968 475.197 290.279C475.489 290.589 475.884 290.764 476.296 290.764C476.709 290.764 477.104 290.589 477.396 290.279C477.688 289.968 477.852 289.547 477.852 289.108C477.852 288.669 477.688 288.248 477.396 287.938C477.104 287.628 476.709 287.453 476.296 287.453Z" fill="white"/>
<path d="M397.52 353.379V354.438C397.52 354.877 397.684 355.298 397.976 355.609C398.267 355.919 398.663 356.094 399.075 356.094C399.488 356.094 399.883 355.919 400.175 355.609C400.466 355.298 400.63 354.877 400.63 354.438V353.379C400.63 352.94 400.466 352.519 400.175 352.209C399.883 351.898 399.488 351.724 399.075 351.724C398.663 351.724 398.267 351.898 397.976 352.209C397.684 352.519 397.52 352.94 397.52 353.379Z" fill="white"/>
<path d="M288.608 379.73V380.789C288.608 381.228 288.772 381.649 289.063 381.959C289.355 382.27 289.751 382.444 290.163 382.444C290.575 382.444 290.971 382.27 291.263 381.959C291.554 381.649 291.718 381.228 291.718 380.789V379.73C291.718 379.291 291.554 378.87 291.263 378.559C290.971 378.249 290.575 378.074 290.163 378.074C289.751 378.074 289.355 378.249 289.063 378.559C288.772 378.87 288.608 379.291 288.608 379.73Z" fill="white"/>
<path d="M390.165 299.039C389.753 299.039 389.357 299.214 389.066 299.524C388.774 299.835 388.61 300.256 388.61 300.695C388.61 301.134 388.774 301.555 389.066 301.865C389.357 302.175 389.753 302.35 390.165 302.35C390.578 302.35 390.973 302.175 391.265 301.865C391.556 301.555 391.72 301.134 391.72 300.695C391.72 300.256 391.556 299.835 391.265 299.524C390.973 299.214 390.578 299.039 390.165 299.039Z" fill="white"/>
<path d="M204.032 295.845C203.619 295.845 203.224 296.019 202.932 296.33C202.64 296.64 202.477 297.061 202.477 297.5C202.477 297.939 202.64 298.36 202.932 298.671C203.224 298.981 203.619 299.155 204.032 299.155C204.444 299.155 204.84 298.981 205.131 298.671C205.423 298.36 205.587 297.939 205.587 297.5C205.587 297.061 205.423 296.64 205.131 296.33C204.84 296.019 204.444 295.845 204.032 295.845Z" fill="white"/>
<path d="M134.15 300.695V301.754C134.15 302.193 134.314 302.614 134.605 302.924C134.897 303.235 135.292 303.409 135.705 303.409C136.117 303.409 136.513 303.235 136.804 302.924C137.096 302.614 137.26 302.193 137.26 301.754V300.695C137.26 300.256 137.096 299.835 136.804 299.524C136.513 299.214 136.117 299.039 135.705 299.039C135.292 299.039 134.897 299.214 134.605 299.524C134.314 299.835 134.15 300.256 134.15 300.695Z" fill="white"/>
<path d="M167.396 352.783C166.983 352.783 166.588 352.958 166.296 353.268C166.005 353.578 165.841 353.999 165.841 354.438C165.841 354.877 166.005 355.298 166.296 355.609C166.588 355.919 166.983 356.094 167.396 356.094C167.808 356.094 168.204 355.919 168.495 355.609C168.787 355.298 168.951 354.877 168.951 354.438C168.951 353.999 168.787 353.578 168.495 353.268C168.204 352.958 167.808 352.783 167.396 352.783Z" fill="white"/>
<path d="M218.882 258.984C218.469 258.984 218.074 259.159 217.782 259.469C217.491 259.779 217.327 260.2 217.327 260.639C217.327 261.078 217.491 261.499 217.782 261.81C218.074 262.12 218.469 262.295 218.882 262.295C219.294 262.295 219.69 262.12 219.981 261.81C220.273 261.499 220.437 261.078 220.437 260.639C220.437 260.2 220.273 259.779 219.981 259.469C219.69 259.159 219.294 258.984 218.882 258.984Z" fill="white"/>
<path d="M295.108 206.3C294.695 206.3 294.3 206.474 294.008 206.785C293.717 207.095 293.553 207.516 293.553 207.955C293.553 208.394 293.717 208.815 294.008 209.125C294.3 209.436 294.695 209.61 295.108 209.61C295.52 209.61 295.916 209.436 296.207 209.125C296.499 208.815 296.663 208.394 296.663 207.955C296.663 207.516 296.499 207.095 296.207 206.785C295.916 206.474 295.52 206.3 295.108 206.3Z" fill="white"/>
<path d="M341.649 412.85C341.237 412.85 340.841 413.024 340.55 413.334C340.258 413.645 340.094 414.066 340.094 414.505C340.094 414.944 340.258 415.365 340.55 415.675C340.841 415.986 341.237 416.16 341.649 416.16C342.062 416.16 342.457 415.986 342.749 415.675C343.04 415.365 343.204 414.944 343.204 414.505C343.204 414.066 343.04 413.645 342.749 413.334C342.457 413.024 342.062 412.85 341.649 412.85Z" fill="white"/>
<path d="M444.606 319.812C434.607 319.812 434.576 336.364 444.606 336.364C454.635 336.364 454.635 319.812 444.606 319.812Z" fill="#FFAE46"/>
<path d="M165.421 310.328C155.422 310.328 155.391 326.88 165.421 326.88C175.451 326.88 175.435 310.328 165.421 310.328Z" fill="#FFAE46"/>
<path d="M314.468 419.189C313.01 417.638 311.032 416.766 308.971 416.766C306.909 416.766 304.932 417.638 303.474 419.189C302.044 420.764 301.233 422.859 301.203 425.048V426.108C301.226 428.298 302.039 430.396 303.474 431.967C304.932 433.518 306.909 434.39 308.971 434.39C311.032 434.39 313.01 433.518 314.468 431.967C315.897 430.392 316.709 428.297 316.738 426.108V425.048C316.715 422.858 315.902 420.76 314.468 419.189V419.189Z" fill="#00AEE1"/>
<path d="M172.216 197.759C190.938 197.759 206.115 181.604 206.115 161.676C206.115 141.748 190.938 125.593 172.216 125.593C153.494 125.593 138.317 141.748 138.317 161.676C138.317 181.604 153.494 197.759 172.216 197.759Z" fill="#70E5FF"/>
<path d="M199.786 141.831C203.363 140.781 206.999 139.974 210.671 139.414C212.516 139.116 214.374 138.928 216.238 138.851C218.173 138.736 220.114 138.858 222.023 139.215C223.127 139.414 224.183 139.842 225.133 140.473C225.705 140.875 226.193 141.399 226.563 142.013C226.953 142.682 227.177 143.445 227.217 144.231C227.23 145.53 226.948 146.814 226.392 147.971C225.952 148.956 225.432 149.897 224.837 150.785C222.48 154.008 219.753 156.905 216.72 159.409C210.899 164.341 204.717 168.769 198.231 172.65C191.815 176.599 185.207 180.184 178.436 183.392C171.663 186.654 164.71 189.473 157.615 191.834C154.04 193.048 150.406 194.06 146.73 194.863C142.963 195.743 139.136 196.302 135.285 196.534C133.312 196.642 131.335 196.559 129.376 196.286C127.281 196.033 125.242 195.407 123.343 194.432C122.299 193.898 121.344 193.188 120.512 192.33C119.58 191.348 118.909 190.12 118.569 188.771C118.268 187.483 118.268 186.137 118.569 184.849C118.825 183.729 119.217 182.649 119.735 181.638C121.784 178.115 124.419 175.019 127.51 172.501C130.365 169.985 133.419 167.736 136.638 165.781C133.971 168.403 131.428 171.165 129.018 174.057C126.608 176.792 124.61 179.908 123.094 183.293C122.483 184.583 122.339 186.068 122.689 187.464C122.89 187.982 123.211 188.438 123.622 188.788C124.155 189.229 124.74 189.591 125.364 189.864C128.457 190.955 131.742 191.289 134.974 190.84C142.017 189.969 148.948 188.27 155.64 185.776C162.482 183.425 169.153 180.479 175.855 177.5C189.117 171.452 201.81 164.081 213.766 155.486C216.637 153.374 219.291 150.944 221.681 148.236C222.211 147.602 222.69 146.921 223.111 146.2C223.442 145.646 223.664 145.027 223.764 144.38C223.779 144.159 223.737 143.938 223.644 143.74C223.551 143.542 223.41 143.374 223.236 143.254C222.648 142.799 221.99 142.457 221.292 142.244C217.853 141.364 214.314 141.007 210.78 141.185C207.095 141.202 203.441 141.433 199.786 141.831Z" fill="#8CC63F"/>
</svg>
